<mxfile host="app.diagrams.net" modified="2023-09-17T06:33:06.681Z" agent="Mozilla/5.0 (X11; Ubuntu; Linux x86_64; rv:109.0) Gecko/20100101 Firefox/117.0" version="21.7.5" etag="v_jgQd3l2Gwe1eSxxl7J" type="github">
  <diagram name="Page-1" id="3B8jolu6QnPAjiKMLwX8">
    <mxGraphModel>
      <root>
        <mxCell id="0" />
        <mxCell id="1" parent="0" />
      </root>
    </mxGraphModel>
  </diagram>
</mxfile>
